<svg width="101" height="57" viewBox="0 0 101 57" fill="none" xmlns="http://www.w3.org/2000/svg">
<path d="M100.983 49.1646C100.966 51.3145 97.1452 56.9821 92.8454 56.949C90.0546 56.927 83.0665 56.9557 78.2196 56.9777C74.95 56.9943 71.7588 56.0732 69 54.3182C57.4286 46.9573 26.0591 26.762 24.6041 23.2553C23.6488 20.9554 24.2302 18.0057 25.994 16.3268C27.7578 14.6468 33.4608 1.47928 40.4566 0.0882912C45.0509 -0.825062 46.5081 5.58055 53.3285 8.55999C56.962 10.1473 61.6667 11.5074 61.6667 11.5074C61.6667 11.5074 64.4895 5.89824 65.4878 5.83978C66.4883 5.78131 70.7197 16.8497 72.97 21.0138C75.2203 25.1802 87.6311 41.3536 94.6434 43.6635C101.655 45.9733 100.983 49.1646 100.983 49.1646Z" fill="#2D407A"/>
<path d="M38.7361 20.5382L50.5248 35.3967C51.0432 36.0509 52.0172 36.1027 52.603 35.5092L58.5243 29.5041C59.1399 28.8797 60.1712 28.9735 60.6632 29.6993L67.0556 39.1053C67.9359 40.4003 69.9523 39.4782 69.5486 37.9658L65.4208 22.5171C65.1451 21.4857 63.8578 21.1371 63.0999 21.8895L54.2995 30.6071C53.5053 31.3936 52.154 30.969 51.9544 29.8681L48.7278 12.1227C48.5282 11.0285 47.1912 10.5994 46.3926 11.3726L38.8574 18.6762C38.3456 19.1737 38.2926 19.9789 38.7361 20.5382Z" fill="#5FD2D0"/>
<path d="M54.4461 54.6073H9.46555C8.78494 54.6073 8.2334 54.0558 8.2334 53.3763C8.2334 52.6968 8.78494 52.1452 9.46555 52.1452H54.4461C55.1256 52.1452 55.6771 52.6968 55.6771 53.3763C55.6771 54.0558 55.1256 54.6073 54.4461 54.6073Z" fill="#5FD2D0"/>
<path d="M39.2506 44.2739H31.2003C30.5208 44.2739 29.9692 43.7224 29.9692 43.0429C29.9692 42.3634 30.5208 41.8118 31.2003 41.8118H39.2506C39.9301 41.8118 40.4816 42.3634 40.4816 43.0429C40.4816 43.7224 39.9301 44.2739 39.2506 44.2739Z" fill="#5FD2D0"/>
<path d="M24.0539 44.2739H1.23215C0.551543 44.2739 0 43.7224 0 43.0429C0 42.3634 0.551543 41.8118 1.23215 41.8118H24.0539C24.7334 41.8118 25.2849 42.3634 25.2849 43.0429C25.2849 43.7224 24.7334 44.2739 24.0539 44.2739Z" fill="#5FD2D0"/>
<path d="M24.054 33.9406H11.0807C10.4012 33.9406 9.84961 33.389 9.84961 32.7095C9.84961 32.03 10.4012 31.4785 11.0807 31.4785H24.054C24.7335 31.4785 25.2851 32.03 25.2851 32.7095C25.2851 33.389 24.7335 33.9406 24.054 33.9406Z" fill="#5FD2D0"/>
</svg>
