<svg width="78" height="73" viewBox="0 0 78 73" fill="none" xmlns="http://www.w3.org/2000/svg">
<path d="M12.2317 17.6806C11.6007 16.5187 11.3652 15.4377 11.2874 14.5943L17.1444 16.0591C17.2738 16.0917 17.4021 16.1064 17.5283 16.1064C18.2349 16.1064 18.8784 15.628 19.0572 14.9119C19.2686 14.0665 18.7554 13.2105 17.91 12.9991L10.3 11.0959C8.65431 10.528 5.18213 8.74041 4.95815 6.83502C4.79306 5.42911 5.13166 4.43856 5.47341 3.82867C17.2359 9.43863 27.3107 10.0643 35.4539 10.5701C42.476 11.0054 47.5497 11.3209 50.3815 14.7121C53.3595 18.2768 53.656 24.7186 51.0713 29.6955C49.677 32.3759 46.2374 36.7766 38.9975 36.1782C28.6336 35.3139 23.8154 27.9426 22.0404 24.2695L29.7745 24.2338C30.6452 24.2306 31.3486 23.5208 31.3444 22.6502C31.3402 21.7806 30.6346 21.0792 29.7671 21.0792H29.7598L20.2128 21.1233L19.7039 21.116C19.6482 21.116 14.0308 20.9972 12.2317 17.6806ZM71.0569 58.0303C68.7004 57.5056 65.5405 55.3972 62.3596 52.7652C62.9527 51.9997 62.9842 50.905 62.3606 50.1048C61.7381 49.3078 60.6729 49.0712 59.7865 49.456C59.1671 47.8577 58.6161 46.3245 58.1555 44.9449L58.4237 44.8534C59.5593 44.4665 60.165 43.233 59.7791 42.0984C59.3922 40.9627 58.1587 40.356 57.023 40.743L56.9158 40.7798C56.839 40.458 56.7759 40.1741 56.7328 39.9333C56.5856 39.1246 56.4468 38.0721 56.3122 36.9027H56.5025C57.7013 36.9027 58.6729 35.9301 58.6729 34.7313C58.6729 33.5326 57.7013 32.5599 56.5025 32.5599H55.8558C55.6718 30.7239 55.4846 28.9331 55.2859 27.5388C56.7696 22.1991 55.8926 16.3883 52.8032 12.69C49.1007 8.2567 43.1648 7.88761 35.6505 7.42178C27.5294 6.91704 17.4231 6.28927 5.74681 0.451126L4.84459 7.62939e-06L4.05593 0.630936C3.94342 0.720314 1.31667 2.87703 1.82562 7.20306C2.22415 10.5964 6.07594 12.7215 8.10331 13.6143C8.06966 14.9129 8.26525 16.9834 9.45874 19.1854C11.0213 22.0634 14.1118 23.3126 16.4883 23.8552C15.1896 25.2864 14.3936 27.5598 15.1896 28.7828C16.2338 30.3874 29.2824 49.3267 31.2298 50.1458C31.8239 50.395 34.3192 49.7704 34.8177 49.9008C35.3161 50.0312 33.9827 52.1827 33.8723 53.618C33.8219 54.2689 46.0397 69.9737 53.3994 69.9737C54.6876 69.9737 54.9978 68.5457 56.0157 68.3827C57.0325 68.2207 56.7412 70.4837 57.6729 70.5962C58.6035 70.7087 66.7771 70.449 70.6331 70.0946C74.4891 69.7413 77.4061 64.3206 77.2305 62.3931C77.2305 62.3931 77.547 59.473 71.0569 58.0303Z" fill="#2D407A"/>
</svg>
