<svg width="27" height="27" viewBox="0 0 27 27" fill="none" xmlns="http://www.w3.org/2000/svg">
<path d="M20.4891 11.9351H17.2429V0H17.8964C19.3284 0 20.4891 1.87109 20.4891 4.17926V11.9351Z" fill="#108476"/>
<path d="M3.10327 12.3668C3.89077 12.7288 3.58599 14.7855 4.21215 15.5819C4.7844 16.3097 6.3035 16.6814 6.68794 17.6853L14.4779 16.222L15.01 9.74343L14.4779 6.76932L3.10327 12.3668Z" fill="#FAF9FF"/>
<path d="M20.4891 9.97146C18.9604 9.52267 17.7195 7.74561 17.2433 5.4085L14.4778 6.76941V16.2221L14.6497 16.1898L20.4891 9.97146Z" fill="#ECE6EA"/>
<path d="M13.2112 13.5459L11.2558 8.35492L9.71924 9.11103L11.6742 14.3009L12.852 14.8806L13.2112 13.5459Z" fill="#4F5860"/>
<path d="M12.9414 7.52628L14.4777 11.6046L15.0098 9.74443L14.4777 6.77024L12.9414 7.52628Z" fill="#4F5860"/>
<path d="M16.4345 11.9628L14.478 6.76924L14.4778 6.76932V11.6036L14.8975 12.7177L15.8493 13.2137L16.4345 11.9628Z" fill="#3C454E"/>
<path d="M6.68767 16.7499C7.02286 17.6252 5.42695 19.9153 5.58305 20.9417C5.69945 21.7072 7.59988 22.6751 7.57969 23.0038L14.4776 24.2046L16.0723 18.7867L14.4776 12.9238L6.68767 16.7499Z" fill="#19A68F"/>
<path d="M25.2086 5.62565C24.6171 8.22676 23.0674 10.0829 21.2488 10.0829C20.9893 10.0829 20.7356 10.0438 20.4891 9.97146L14.4778 12.9239V24.2046L17.478 24.7269L26.5699 23.0038V5.62565H25.2086Z" fill="#108476"/>
<path d="M3.10324 12.3668L2.60453 12.6122C1.04666 13.3788 0 15.6579 0 18.2835V23.0038L3.80584 24.7269L7.57992 23.0038C7.60011 22.675 7.61168 22.3423 7.61168 22.005C7.61163 17.4255 5.70601 13.5635 3.10324 12.3668Z" fill="#22D683"/>
<path d="M0 23.0038L2.11097 26.4499H14.4778L15.6955 24.7269L14.4778 23.0038H0Z" fill="#4F5860"/>
<path d="M14.4778 23.0038H26.5699V26.45H14.4778V23.0038Z" fill="#3C454E"/>
</svg>
