<svg id="Capa_1" enable-background="new 0 0 511.987 511.987" height="512" viewBox="0 0 511.987 511.987" width="512" xmlns="http://www.w3.org/2000/svg"><g><path d="m158.658 354.757h268.247c15.369 0 30.108-6.105 40.976-16.973l3.142-3.142c5.789-5.789 13.641-9.041 21.828-9.041h9.745c1.056 3.625 1.695 7.402 1.875 11.264.011.232.016 3.931.018 9.394.011 28.051-22.725 50.803-50.777 50.803h-193.808c-18.325 0-36.326-4.824-52.196-13.986z" fill="#665e66"/><path d="m68.824 345.809c6.312 0 8.551-8.356 3.085-11.512l-52.472-30.295-6.699 24.99 5.782 3.338c15.294 8.83 32.643 13.479 50.304 13.479z" fill="#daf1f4"/><path d="m26.314 278.348-6.877 25.654 52.472 30.295c5.466 3.156 3.227 11.512-3.085 11.512-17.661 0-35.01-4.649-50.304-13.479l-5.782-3.338-3.744 13.965c-7.318 27.297 13.251 54.105 41.512 54.105h85.786c18.325 0 36.326-4.824 52.196-13.986l9.611-5.549z" fill="#4073c8"/><path d="m255.744 212.234-.118-.118c-4.911-4.911-4.911-12.874 0-17.786l19.061-19.061c4.911-4.911 12.874-4.911 17.786 0l.118.118c4.911 4.911 4.911 12.874 0 17.786l-19.061 19.061c-4.912 4.911-12.875 4.911-17.786 0z" fill="#f1f1f4"/><path d="m292.147 248.638-.118-.118c-4.911-4.911-4.911-12.874 0-17.786l19.061-19.061c4.911-4.911 12.874-4.911 17.786 0l.118.118c4.911 4.911 4.911 12.874 0 17.786l-19.061 19.061c-4.911 4.911-12.874 4.911-17.786 0z" fill="#f1f1f4"/><path d="m474.579 294.397-111.23-45.846c-12.117-4.994-23.484-11.577-33.811-19.554-.174.197-.354.391-.543.58l-19.062 19.061c-4.911 4.911-12.874 4.911-17.786 0l-.118-.118c-4.911-4.911-4.911-12.874 0-17.786l18.777-18.777-18.5-18.5-18.777 18.777c-4.911 4.911-12.874 4.911-17.786 0l-.118-.118c-4.911-4.911-4.911-12.874 0-17.786l18.777-18.777-1.87-1.87c-13.723-13.724-34.953-16.518-51.761-6.815l-1.674.966c-21.91 12.65-46.764 19.309-72.064 19.309-38.225 0-74.885-15.185-101.914-42.214l-8.237-8.237c-2.394-2.394-6.488-.698-6.488 2.687v29.829c0 10.649 4.23 20.863 11.761 28.393 1.334 1.334 1.606 3.398.662 5.032-10.813 18.728-16.505 39.973-16.505 61.598v14.115l132.344 76.409h268.247c15.369 0 30.108-6.105 40.975-16.973l2.408-2.408.734-.734c5.789-5.789 13.641-9.041 21.828-9.041h9.745c-4.035-13.855-14.165-25.494-28.014-31.202z" fill="#dd636e"/><path d="m474.579 294.397-25.122-10.354c3.673 3.49 6.767 7.528 9.176 11.952 2.358 4.33-.853 9.607-5.783 9.607-8.187 0-16.038 3.252-21.827 9.041l-.734.734c-12.411 12.409-29.242 19.381-46.793 19.381h-231.576c-13.134 0-26.129-2.084-38.513-6.126l45.251 26.126h268.247c15.369 0 30.108-6.105 40.975-16.973l2.408-2.408.734-.734c5.789-5.789 13.641-9.041 21.828-9.041h9.745c-4.037-13.858-14.167-25.497-28.016-31.205z" fill="#da4a54"/><path d="m329.538 228.997c-.174.197-.355.391-.543.58l-19.062 19.061c-4.911 4.911-12.874 4.911-17.786 0l-.118-.118c-4.911-4.911-4.911-12.872-.002-17.784l-124.021 124.021h71.595l111.781-111.781c-7.682-4.008-14.992-8.687-21.844-13.979z" fill="#dd636e"/><path d="m255.626 212.116c-4.911-4.911-4.911-12.874 0-17.786l18.777-18.777-1.87-1.87c-5.979-5.979-13.383-9.884-21.226-11.584l-156.053 156.052 34.598 19.975 125.892-125.892z" fill="#dd636e"/><path d="m329.538 228.997c-.174.197-.355.391-.543.58l-19.062 19.061c-4.911 4.911-12.874 4.911-17.786 0l-.118-.118c-4.911-4.911-4.911-12.872-.002-17.784l-124.021 124.021h71.595l111.781-111.781c-7.682-4.008-14.992-8.687-21.844-13.979z" fill="#c6c1c8"/><path d="m255.626 212.116c-4.911-4.911-4.911-12.874 0-17.786l18.777-18.777-1.87-1.87c-5.979-5.979-13.383-9.884-21.226-11.584l-156.053 156.052 34.598 19.975 125.892-125.892z" fill="#c6c1c8"/><path d="m113.407 328.632 16.445 9.494 4.604-4.604c-7.15-1.016-14.193-2.653-21.049-4.89z" fill="#afaab4"/><path d="m141.727 271.678c-36.347-19.566-69.931-44.438-99.556-74.061l-.015-.015c1.334 1.334 1.606 3.398.662 5.032-10.813 18.728-16.505 39.973-16.505 61.598v14.115l68.941 39.803z" fill="#f1f1f4"/><path d="m178.65 289.328-48.798 48.798 28.806 16.631h9.348l50.848-50.848c-13.651-4.19-27.069-9.059-40.204-14.581z" fill="#f1f1f4"/><path d="m151.92 334.757c-5.863 0-11.699-.416-17.465-1.235l-4.604 4.604 28.806 16.631h9.348l20-20z" fill="#dfdde2"/><path d="m306.971 321.088c-10.07-.881-20.076-2.117-30.002-3.698l-37.368 37.368h187.304c15.369 0 30.108-6.105 40.975-16.973l2.408-2.408z" fill="#f1f1f4"/><path d="m188.006 334.757-20 20h71.595l20-20z" fill="#afaab4"/><path d="m141.727 271.678c-36.347-19.566-69.931-44.438-99.556-74.061l-.015-.015c1.334 1.334 1.606 3.398.662 5.032-10.813 18.728-16.505 39.973-16.505 61.598v14.115l68.941 39.803z" fill="#f1f1f4"/><path d="m408.259 329.949c-7.796 3.146-16.194 4.808-24.763 4.808h-123.895l-20 20h187.304c15.369 0 30.108-6.105 40.975-16.973l2.408-2.408z" fill="#dfdde2"/><path d="m272.532 173.683-56.798-56.799c-2.612-2.612-6.846-2.612-9.458 0l-2.157 2.157c-11.468 11.468-17.911 27.023-17.911 43.241v19.436c11.448-3.233 22.499-7.884 32.889-13.883l1.674-.966c16.808-9.704 38.038-6.91 51.761 6.814z" fill="#4073c8"/><path d="m511.962 336.517c-.971-20.855-13.641-40.447-34.524-49.054l-111.23-45.846c-3.823-1.576-7.57-3.32-11.231-5.225-.091-.05-.183-.098-.275-.144-5.359-2.804-10.531-5.956-15.484-9.434 2.21-6.932.571-14.836-4.918-20.326l-.118-.118c-3.792-3.792-8.834-5.88-14.196-5.88-2.899 0-5.704.61-8.268 1.77l-9.718-9.719c3.326-7.39 1.956-16.398-4.114-22.468l-.106-.106c-6.131-6.131-15.16-7.413-22.465-4.11l-54.275-54.276c-2.68-2.68-6.243-4.155-10.032-4.155-3.79 0-7.353 1.476-10.032 4.156l-2.156 2.157c-12.967 12.966-20.108 30.206-20.108 48.544v13.633c-10.341 2.465-20.975 3.729-31.674 3.729-18.555 0-36.614-3.696-53.677-10.985-3.81-1.628-8.217.143-9.843 3.951-1.628 3.809.141 8.216 3.95 9.843 18.936 8.09 38.978 12.191 59.569 12.191 25.751 0 52.093-6.618 75.814-20.314 1.035-.53 4.462-2.942 10.085-4.466l-92.537 92.537c-34.086-18.935-65.323-42.492-92.916-70.081-6.212-6.212-9.585-14.412-9.585-23.111v-20.897l1.921 1.921c4.811 4.81 9.995 9.339 15.412 13.46 3.295 2.509 8.002 1.868 10.51-1.427 2.508-3.297 1.869-8.002-1.428-10.51-4.881-3.713-9.553-7.794-13.888-12.129l-8.236-8.236c-3.242-3.243-8.074-4.206-12.314-2.45-4.238 1.755-6.977 5.853-6.977 10.44v29.83c0 11.875 4.314 23.088 12.202 31.846-10.66 19.31-16.284 41.099-16.284 63.177v13.127c-3.44 12.832-13.62 50.807-17.063 63.653-4.097 15.282-.924 31.245 8.707 43.797 9.63 12.552 24.228 19.751 40.049 19.751h85.785c19.613 0 38.959-5.184 55.946-14.991l5.861-3.384c3.274 1.426 25.969 18.375 61.806 18.375h193.807c15.571 0 30.209-6.066 41.217-17.081 11.008-11.014 17.066-25.655 17.06-41.225-.007-9.258-.016-9.46-.029-9.74zm-40.241-35.186c8.279 3.412 15.057 9.315 19.519 16.803-8.802.361-17.076 3.678-23.674 9.475l-159.94-13.993c-4.897-.428-9.817-.947-14.725-1.552l20.895-20.894c2.929-2.929 2.929-7.678 0-10.606s-7.677-2.93-10.607 0l-31.412 31.411c-.076.072-.15.147-.222.222l-35.06 35.059h-50.381c21.588-21.588 82.402-82.401 97.483-97.483.847 1.447 1.89 2.809 3.129 4.049l.118.118c3.792 3.792 8.834 5.88 14.196 5.88s10.404-2.088 14.196-5.88l15.062-15.061c2.868 2.025 5.803 3.95 8.801 5.773l-10.386 10.386c-2.929 2.929-2.929 7.678 0 10.606 2.93 2.929 7.678 2.929 10.607 0l13.547-13.547c2.509 1.197 5.051 2.326 7.624 3.387zm-192.139 24.052c8.856 1.33 17.831 2.397 26.736 3.177l144.587 12.649c-7.284 3.95-15.48 6.048-23.999 6.048h-169.198zm-172.113-8.84 146.052-146.052c3.564 1.199 6.96 2.972 10.038 5.3l-13.236 13.236c-6.053 6.051-7.394 14.951-4.215 22.235-18.052 18.052-91.458 91.458-117.491 117.491zm171.364-99.006 13.473-13.473 7.893 7.893c-18.093 18.093-66.183 66.183-83.438 83.438-8.333-2.657-16.63-5.592-24.801-8.771l64.803-64.803c7.196 3.066 16.015 1.771 22.07-4.284zm-98.421 80.635c8.042 3.271 16.224 6.316 24.465 9.106l-39.979 39.979h-4.231l-18.601-10.739zm143.16-81.196.118.118c1.979 1.979 1.979 5.2 0 7.179l-19.062 19.062c-1.979 1.98-5.191 1.987-7.178 0l-.118-.118c-1.979-1.979-1.979-5.2 0-7.179l19.062-19.062c1.983-1.983 5.196-1.984 7.178 0zm-36.391-36.392.106.106c1.979 1.979 1.979 5.2 0 7.179l-19.062 19.062c-1.977 1.977-5.178 1.986-7.166.013-.004-.004-.008-.009-.013-.013-.004-.004-.009-.008-.013-.013l-.105-.106c-1.968-1.967-1.997-5.181.001-7.179.208-.208 18.941-18.942 19.06-19.061 1.954-1.951 5.161-2.019 7.192.012zm-70.16-20.21c-1.543.811-9.362 5.978-23.312 11.046v-9.137c0-14.332 5.581-27.805 15.715-37.938l1.582-1.583 30.879 30.88c-8.532.047-17.108 2.253-24.864 6.732zm-183.207 103.859c0-18.138 4.287-36.055 12.447-52.201 25.174 23.703 53.053 44.293 83.121 61.384l-35.362 35.362-60.206-34.76zm102.477 125.33h-85.785c-11.12 0-21.38-5.06-28.148-13.882-6.769-8.822-8.998-20.042-6.119-30.782l1.225-4.569c15.749 8.5 33.439 12.979 51.36 12.979 6.273 0 11.58-4.071 13.204-10.131 1.623-6.06-.936-12.239-6.369-15.376l-6.535-3.773c-3.587-2.072-8.174-.842-10.245 2.745s-.842 8.174 2.745 10.246l1.98 1.144c-14.518-.818-28.709-5.038-41.334-12.328l-.798-.46 2.678-9.99 6.661 3.846c3.581 2.067 8.171.848 10.245-2.745 2.071-3.587.842-8.174-2.745-10.245l-10.141-5.854 2.856-10.655c16.979 9.803 135.367 78.153 152.052 87.787-14.304 7.882-30.438 12.043-46.787 12.043zm348.027-12.685c-8.175 8.179-19.045 12.684-30.607 12.684h-193.807c-16.984 0-33.736-4.489-48.445-12.981-15.769-9.105-18.342-10.59-24.811-14.325h240.257c17.482 0 33.918-6.808 46.279-19.169l3.142-3.142c4.413-4.414 10.282-6.845 16.523-6.845h3.727c.198 1.332.332 2.674.397 4.019.005.45.012 2.456.014 9.142.005 11.565-4.494 22.438-12.669 30.617z"/></g></svg>